<?xml version="1.0" encoding="utf-8" ?>
<svg xmlns="http://www.w3.org/2000/svg" xmlns:xlink="http://www.w3.org/1999/xlink" width="200" height="200">
	<path fill="#173F58" transform="scale(0.195312 0.195312)" d="M507.686 27.2012C519.682 27.0134 531.052 28.2211 542.085 33.2803C549.633 36.7411 556.944 41.3179 564.187 45.3856L604.65 68.1965L739.502 145.125Q799.822 178.87 859.767 213.276C875.312 222.13 906.725 237.855 918.563 249.054C929.239 259.154 935.774 273.04 938.392 287.378C940.426 298.518 939.648 310.529 939.665 321.827L939.714 372.142Q939.314 466.676 940.351 561.203C940.504 569.802 939.985 578.459 939.975 587.073L940.039 662.14L940.045 703.836C940.06 713.857 940.972 724.867 938.931 734.721C935.888 749.407 928.806 763.688 918.237 774.416C908.848 783.947 894.923 790.179 883.338 796.711L845.74 818.099L637.63 936.629L571.511 974.645C562.452 979.843 553.479 985.93 544.098 990.48C535.132 994.828 524.069 997.379 514.125 997.486Q512.026 997.54 509.928 997.474Q507.829 997.407 505.738 997.221Q503.647 997.034 501.57 996.727Q499.493 996.42 497.437 995.995Q495.381 995.569 493.353 995.027Q491.325 994.484 489.331 993.825Q487.338 993.167 485.385 992.395Q483.433 991.623 481.528 990.74C470.016 985.336 459.053 978.033 448.011 971.713L388.935 937.924C346.392 913.048 303.242 889.078 260.428 864.657L159.76 807.691L133.402 792.68C125.332 788.11 116.899 783.778 109.788 777.762C94.2953 764.657 85.6102 747.078 84.1547 726.854C83.5095 717.888 84.0842 708.545 84.1286 699.531L84.0935 652.075L84.2624 474.206L84.0964 351.97L84.014 314.973C84.0031 306.841 83.6305 298.525 84.6215 290.448Q84.7778 289.161 84.9811 287.88Q85.1844 286.6 85.4345 285.328Q85.6846 284.055 85.9811 282.793Q86.2777 281.531 86.6203 280.28Q86.9629 279.03 87.3511 277.793Q87.7392 276.556 88.1725 275.333Q88.6057 274.111 89.0835 272.906Q89.5612 271.701 90.0828 270.514Q90.6044 269.327 91.1691 268.159Q91.7338 266.992 92.3409 265.847Q92.948 264.701 93.5967 263.578Q94.2453 262.456 94.9347 261.357Q95.6241 260.259 96.3532 259.187Q97.0824 258.115 97.8503 257.07Q98.6182 256.025 99.4239 255.01Q100.23 253.994 101.072 253.008C104.934 248.561 109.141 245.427 114.106 242.339C142.757 224.524 172.703 208.53 202.102 191.963L332.146 118.252L421.291 67.4992L459.618 45.4731C466.842 41.3812 474.051 37.0368 481.536 33.4451C490.003 29.382 498.375 27.8535 507.686 27.2012Z"/>
	<path fill="#F8DEBA" transform="scale(0.195312 0.195312)" d="M506.794 43.6941C516.75 42.4616 526.487 44.9073 535.498 48.9984C543.077 52.4396 550.278 57.2526 557.48 61.4375C567.654 67.3495 577.98 73.0355 588.235 78.8091Q651.422 113.81 713.846 150.154L828.061 214.924Q850.098 227.055 871.92 239.57C881.901 245.223 892.143 250.728 901.616 257.207C913.582 265.392 920.078 278.09 922.52 292.158C923.866 299.915 923.458 308.116 923.48 315.969L923.516 350.24L923.513 473.5L923.65 639.922L923.555 693.759C923.554 704.591 924.149 715.851 923.202 726.631C922.327 736.591 918.488 747.19 912.679 755.341C909.041 760.446 904.315 765.321 899.019 768.716C892.727 772.748 885.935 776.218 879.445 779.948L833.35 806.218L693.065 885.861C652.151 908.911 611.713 932.848 570.686 955.697C559.004 962.203 547.519 969.668 535.623 975.685C529.717 978.673 524.147 980.3 517.644 981.442C507.634 981.815 498.844 980.419 489.706 976.179C481.672 972.451 474.093 967.272 466.448 962.803C456.122 956.766 445.596 951.082 435.192 945.181L304.203 870.452L177.282 798.474L141.704 778.249C135.33 774.604 128.225 771.126 122.395 766.679C111.126 758.085 102.697 743.614 100.995 729.543C100.037 721.622 100.506 713.301 100.524 705.321L100.555 665.268L100.511 529.301L100.517 371.384L100.553 323.462C100.549 314.353 100.003 304.816 100.89 295.753C101.884 285.589 105.703 274.256 112.07 266.174C115.678 261.594 120.245 257.933 125.16 254.842C144.925 242.414 165.802 231.452 186.103 219.916L320.741 144.194L444.152 73.7247C458.752 65.5033 473.137 56.0908 488.083 48.5996C494.11 45.5789 500.148 44.4565 506.794 43.6941Z"/>
	<path fill="#173F58" transform="scale(0.195312 0.195312)" d="M512.709 66.7162C516.82 66.7146 520.36 68.1184 523.93 70.0007C530.188 73.3005 536.12 77.2944 542.288 80.7717L589.871 107.631L752.798 200.74Q797.745 226.036 842.266 252.074L868.093 266.741C874.595 270.449 881.939 274.069 887.45 279.15C894.482 285.633 898.136 294.091 898.501 303.606C899.662 333.881 898.691 365.67 898.692 396.059L898.847 569.094L898.732 676.299L898.796 709.025C898.813 715.888 899.177 723.069 898.379 729.888C897.785 734.974 894.261 740.853 890.749 744.511C883.871 751.674 852.101 767.83 842.066 773.507L704.496 850.403L556.838 934.8C545.88 941.031 535.331 948.042 524.292 954.105C519.926 956.503 517.079 958.005 512.047 958.077C509.371 957.911 507.082 957.719 504.612 956.616C496.612 953.043 488.771 947.233 481.136 942.794Q456.325 928.42 431.297 914.427L236.277 804.319L169.914 767.246C159.966 761.63 145.685 754.709 137.063 747.644C131.307 742.926 126.108 736.093 125.415 728.501C124.664 720.279 125.149 711.588 125.139 703.321L125.118 656.269L125.445 504.449L125.393 369.661L125.157 327.316C125.109 319.182 124.584 310.667 125.377 302.579C126.15 294.706 129.981 286.123 135.104 280.162C137.429 277.456 140.186 274.823 143.23 272.955C156.159 265.019 169.648 257.832 182.886 250.42Q219.021 229.948 255.494 210.082C294.099 188.718 332.062 166.128 370.611 144.638C403.03 126.565 434.942 107.521 467.152 89.075C478.181 82.7582 489.103 75.6863 500.381 69.8751C504.488 67.7587 508.146 67.0347 512.709 66.7162Z"/>
	<path fill="#F8DEBA" transform="scale(0.195312 0.195312)" d="M510.446 510.065C532.052 521.474 553.205 533.923 574.428 546.024Q613.35 567.786 651.905 590.193C660.827 595.37 669.688 600.647 678.772 605.539C687.095 610.02 696.36 614.145 703.971 619.729C704.396 644.869 704.015 670.081 704.024 695.228L703.979 834.986Q630.508 877.565 556.547 919.286Q543.593 926.877 530.77 934.688C525.252 938.022 518.986 942.809 512.849 944.613C511.225 944.43 509.943 944.069 508.484 943.326C501.888 939.965 495.51 935.54 489.158 931.707Q474.967 923.266 460.6 915.128L355.863 855.682C343.652 848.793 331.676 841.43 319.368 834.733L319.06 705.524C319.039 677.575 318.425 649.453 319.264 621.52C324.834 616.851 331.771 613.584 338.097 610.037L361.216 596.886L456.714 542.183C473.683 532.464 495.156 521.593 510.446 510.065Z"/>
	<path fill="#173F58" transform="scale(0.195312 0.195312)" d="M511.092 518.378C528.987 529.191 547.727 538.902 565.958 549.158L652.805 598.819C667.457 607.194 682.325 615.13 696.865 623.711Q697.378 680.352 696.982 736.994L696.865 830.21C692.013 834.083 686.26 837.12 680.915 840.264Q668.729 847.495 656.389 854.46L598.04 887.658L540.539 920.926C531.06 926.415 521.644 932.499 511.822 937.306C504.663 933.876 497.761 929.161 490.895 925.143L451.796 902.644C409.554 878.732 366.71 855.468 325.221 830.293C325.619 822.973 325.376 815.48 325.388 808.147L325.343 765.346C325.281 718.507 324.882 671.608 325.435 624.774C341.107 616.61 356.059 606.933 371.472 598.278L511.092 518.378Z"/>
	<path fill="#E87157" transform="scale(0.195312 0.195312)" d="M511.571 542.265C514.381 544.88 523.956 566.55 526.438 571.323L562.985 641.154C569.508 653.764 576.538 666.459 582.112 679.512L513.625 679.512Q477.714 679.688 441.803 679.451C448.046 663.658 457.178 648.702 464.923 633.589L511.571 542.265Z"/>
	<path fill="#E87157" transform="scale(0.195312 0.195312)" d="M431.143 697.29C434.83 700.821 444.259 718.763 447.477 724.229Q467.87 758.602 487.429 793.457C491.691 800.882 496.242 808.137 500.446 815.591L421.875 815.248L350.762 814.969C359.701 799.4 370.789 784.773 381.125 770.11C389.337 758.46 397.258 746.585 405.378 734.866C414.024 722.386 422.886 710.032 431.143 697.29Z"/>
	<path fill="#E87157" transform="scale(0.195312 0.195312)" d="M592.391 697.87C596.413 702.438 599.853 707.804 603.308 712.809C610.198 722.792 616.784 732.973 623.599 743.006C629.301 751.399 635.215 759.634 640.855 768.074C646.095 775.915 651.069 783.96 656.425 791.72C661.865 799.6 667.917 807.029 673.252 814.99C650.774 815.634 628.238 815.428 605.75 815.499C578.6 815.518 551.271 816.055 524.145 815.102Q549.186 770.927 574.959 727.174C580.774 717.427 586.231 707.4 592.391 697.87Z"/>
	<path fill="#F8DEBA" transform="scale(0.195312 0.195312)" d="M478.379 692.254L540.646 692.336C553.446 692.339 566.286 691.939 579.078 692.337C574.169 702.255 568.192 711.819 562.678 721.425C550.051 743.418 537.032 765.184 524.567 787.267Q518.196 798.183 512.219 809.32C505.425 796.476 497.678 784.172 490.323 771.65L461.135 720.958C455.701 711.395 449.4 702.326 444.777 692.318C455.966 692.119 467.187 692.268 478.379 692.254Z"/>
	<path fill="#173F58" transform="scale(0.195312 0.195312)" d="M499.751 718.189C507.889 718.624 516.03 718.471 524.171 718.269L515.68 733.756L512.095 741.323C508.492 734.76 501.364 725.157 499.751 718.189Z"/>
	<path fill="#F8DEBA" transform="scale(0.195312 0.195312)" d="M338.91 638.177Q366.139 652.918 392.825 668.62C403.045 674.51 413.533 680.05 423.506 686.351C416.348 695.172 409.998 704.714 403.47 714.008Q388.287 735.47 373.498 757.205C362.15 773.616 351.595 791.142 338.976 806.579L338.91 638.177Z"/>
	<path fill="#173F58" transform="scale(0.195312 0.195312)" d="M363.725 688.801C370.565 691.878 377.397 697.41 383.634 701.605C380.927 703.023 378.325 704.678 375.704 706.25L363.771 714.016Q364.063 701.408 363.725 688.801Z"/>
	<path fill="#F8DEBA" transform="scale(0.195312 0.195312)" d="M525.066 541.175C530.273 543.368 535.315 546.642 540.241 549.439L572.316 567.983L638.271 605.857C650.888 613.114 663.741 619.963 676.185 627.522Q661.11 635.927 646.48 645.084Q620.601 659.713 595.417 675.508C584.571 652.859 572.549 630.692 560.808 608.494L536.013 560.931C532.477 554.279 528.5 547.886 525.066 541.175Z"/>
	<path fill="#173F58" transform="scale(0.195312 0.195312)" d="M597.342 611.622L619.248 624.004L612.763 627.571L599.447 635.058C598.437 627.321 597.583 619.421 597.342 611.622Z"/>
	<path fill="#F8DEBA" transform="scale(0.195312 0.195312)" d="M518.622 828.079C530.516 828.599 542.488 828.388 554.394 828.402L609.087 828.385Q628.343 828.244 647.6 828.32C656.577 828.349 665.634 828.638 674.595 828.156C656.393 840.2 636.393 850.102 617.513 861.101L548.534 900.482C538.39 906.294 528.925 913.104 518.541 918.542C518.514 888.405 518.091 858.209 518.622 828.079Z"/>
	<path fill="#173F58" transform="scale(0.195312 0.195312)" d="M548.066 850.017C555.585 851.648 563.004 853.26 570.605 854.485C567.644 856.736 564.535 858.818 561.488 860.953C557.071 863.792 552.563 866.438 548.021 869.069L548.066 850.017Z"/>
	<path fill="#F8DEBA" transform="scale(0.195312 0.195312)" d="M349.376 828.118Q427.458 828.759 505.54 828.047L505.532 916.88C505.308 917.095 504.965 917.134 504.673 917.241C497.562 913.544 490.784 909.099 483.85 905.067Q460.267 891.108 436.318 877.785L380.922 846.751C370.457 840.86 359.032 835.288 349.376 828.118Z"/>
	<path fill="#173F58" transform="scale(0.195312 0.195312)" d="M471.277 849.643C472.588 849.442 473.412 849.349 474.731 849.653C476.078 853.078 475.338 864.531 475.361 868.763C471.87 866.413 468.491 863.862 465.075 861.403C460.936 858.431 456.892 855.411 452.921 852.215C459.098 851.78 465.19 850.736 471.277 849.643Z"/>
	<path fill="#F8DEBA" transform="scale(0.195312 0.195312)" d="M494.962 543.477L495.13 543.625C495.216 543.908 495.376 544.178 495.386 544.473C495.476 547.148 435.207 662.009 429.134 674.206C412.278 664.087 394.816 654.958 377.953 644.815C368.215 638.948 357.116 634.211 347.96 627.587C365.201 618.06 382.103 607.953 399.165 598.119L459.618 563.725C471.423 557.013 482.913 549.76 494.962 543.477Z"/>
	<path fill="#173F58" transform="scale(0.195312 0.195312)" d="M427.921 610.434C428.396 617.388 425.565 627.42 424.314 634.585C420.517 632.142 416.628 629.871 412.732 627.594L405.437 623.317Q416.597 616.732 427.921 610.434Z"/>
	<path fill="#F8DEBA" transform="scale(0.195312 0.195312)" d="M683.379 639.006C684.199 643.916 683.613 649.794 683.605 654.82L683.572 687.653L683.488 808.245C672.664 791.9 661.459 775.8 650.784 759.364C634.63 735.098 617.461 711.384 601.909 686.733Q642.189 662.092 683.379 639.006Z"/>
	<path fill="#173F58" transform="scale(0.195312 0.195312)" d="M655.622 690.927L656.072 690.969C657.119 692.483 659.015 714.689 659.721 718.962L649.713 711.233Q643.512 706.578 637.533 701.642Q646.545 696.23 655.622 690.927Z"/>
	<path fill="#E38E47" transform="scale(0.195312 0.195312)" d="M138.362 464.77C137.914 430.105 138.497 395.41 138.277 360.737L138 323.357C137.978 316.976 137.44 309.949 138.423 303.662C139.285 298.146 142.181 292.367 146.025 288.298C152.056 281.915 164.15 276.543 171.963 272.153L203.623 254.375Q277.929 213.16 351.768 171.115L455.614 111.611C466.519 105.276 477.633 99.3127 488.536 92.9925C496.162 88.5718 503.951 82.917 512.16 79.7056C524.738 85.422 540.089 95.6848 552.623 102.734L655.554 161.334L791.271 239.094Q822.127 256.241 852.72 273.851C860.477 278.31 868.646 282.447 876.175 287.242C879.283 289.221 882.39 292.273 883.676 295.789C884.73 298.672 885.258 302.016 885.435 305.08C885.809 311.576 885.553 318.19 885.591 324.703L885.752 362.64C885.789 386.403 886.506 410.452 885.511 434.174C871.559 425.717 858.561 415.708 844.881 406.832C837.257 401.886 820.617 392.877 814.67 387.509C808.169 381.64 801.346 370.776 795.799 363.685C786.657 351.997 776.899 340.689 768.145 328.718L765.062 325.138C760.195 320.558 756.062 314.289 751.524 309.247C746.083 314.606 740.158 319.529 734.617 324.8C722.265 336.551 710.082 348.656 696.983 359.582L696.771 313.596C698.046 313.125 699.596 312.69 700.768 312.009C701.876 311.365 702.066 310.753 702.372 309.571C700.373 304.926 667.375 267.304 662.601 263.096C655.9 269.711 650.068 278.279 643.981 285.568C639.167 291.333 630.489 299.266 627.182 305.689C626.786 306.459 627.668 311.473 627.229 313.687C627.184 313.917 627.131 314.145 627.082 314.374L632.242 313.05Q632.396 339.236 632.169 365.422L629.403 368.548Q629.678 374.515 630.241 380.461L621.237 380.482C621.379 378.168 621.499 375.87 621.819 373.573C622.036 372.011 622.055 370.043 621.196 368.648C620.534 367.575 619.489 367.123 618.299 366.913C616.281 366.557 610.79 367.606 609.201 369.025C608.514 369.639 608.369 370.784 608.429 371.65C608.606 374.215 609.857 377.094 609.31 379.608C608.276 380.684 607.529 380.686 606.053 380.74C604.052 380.814 601.993 380.66 599.99 380.585C600.025 376.34 600.208 372.086 600.212 367.845C595.907 367.66 591.627 367.652 587.32 367.687C587.848 372.002 588.056 376.2 588.028 380.546L579.754 380.595C579.789 376.854 581.018 371.132 578.583 368.231C575.488 366.821 571.773 367.704 568.495 368.05C568.495 372.048 568.751 376.238 568.106 380.187C567.497 380.738 567.898 380.515 566.794 380.598C564.973 378.069 565.858 370.655 565.9 367.391C565.654 366.038 565.257 364.748 564.863 363.434C563.454 361.034 564.018 250.181 564.028 235.258C566.178 234.947 568.338 234.636 569.938 233.051C570.846 231.275 570.601 229.627 570.503 227.681C570.264 220.218 570.946 213.104 571.781 205.704C566.228 200.159 561.366 193.886 556.411 187.815C545.268 174.163 534.694 160.075 523.67 146.326C519.121 140.652 514.757 133.949 509.344 129.107C506.651 135.934 498.603 144.413 493.903 150.216L464.724 186.228C460.512 191.352 455.58 196.195 451.665 201.516C450.764 202.741 449.598 204.305 449.314 205.836C448.658 209.365 451.566 217.428 452.159 221.466C452.596 224.434 452.535 227.403 452.473 230.395C454.472 233.077 456.992 234.921 459.991 236.366L460.502 235.984L460.874 238.102C460.075 242.222 460.54 247.039 460.538 251.272L460.544 275.3L460.511 369.671L460.497 418.649C460.504 426.112 461.484 434.898 460.13 442.152C459.851 443.646 459.553 444.639 458.279 445.498C456.734 445.516 456.417 445.518 455.077 444.779C454.315 443.686 453.942 442.786 453.799 441.448C453.135 435.22 453.655 428.467 453.646 422.171L453.598 384.295C453.614 380.362 454.171 376.307 453.895 372.4C453.787 370.878 453.386 369.304 452.095 368.347C449.422 366.365 445.073 367.309 441.99 367.562C441.942 370.564 442.337 373.601 442.202 376.589C442.137 378.045 441.562 378.85 440.531 379.847C438.573 380.781 436.31 380.371 434.196 380.256C433.894 377.246 434.5 370.714 432.364 368.581C431.34 367.559 429.933 367.223 428.538 367.161C426.807 367.084 424.63 367.308 423.416 368.708C421.373 371.064 422.424 377.483 422.468 380.503L414.558 380.447C414.635 377.445 415.546 371.457 413.424 369.011C411.261 366.516 405.414 367.39 402.472 367.456C402.42 371.07 403.807 376.703 401.376 379.591C400.067 380.198 399.459 380.255 398.033 380.06C396.536 377.063 398.921 372.632 397.354 369.466C396.251 367.238 393.162 367.078 391.002 366.654C390.852 358.322 391.592 333.777 390.1 327.895C388.39 321.156 383.419 313.542 380.191 307.326C376.943 301.072 372.185 294.422 370.044 287.745C368.685 283.506 369.607 246.752 369.954 240.285C369.486 238.391 368.895 236.82 367.081 235.838C366.29 235.409 366.166 235.688 365.399 235.973C362.139 240.839 364.169 273.613 363.706 282.049C363.069 293.674 345.586 312.218 342.127 325.8C340.384 332.646 341.88 342.899 341.976 350.218C342.101 359.846 341.85 369.529 342.389 379.142L303.676 324.699C300.215 319.928 296.97 314.974 293.376 310.304C287.393 321.683 279.171 332.52 272.085 343.286C265.157 353.811 258.83 364.767 251.824 375.223C245.692 376.375 232.267 377.837 227.179 380.407C222.936 382.549 208.613 398.225 204.323 402.44C192.383 414.174 180.045 425.45 168.009 437.073C158.377 446.373 148.947 456.554 138.362 464.77Z"/>
	<path fill="#F8DEBA" transform="scale(0.195312 0.195312)" d="M575.283 227.316C581.908 226.684 588.807 223.74 595.202 221.89C619.491 214.862 629.278 213.769 649.907 197.491C657.259 204.088 663.015 210.837 668.756 218.832C688.067 217.472 706.771 218.624 725.646 223.02C733.147 224.767 740.52 227.06 747.997 228.912Q692.21 228.634 636.425 229.216C620.382 229.318 604.409 229.255 588.374 228.634C582.853 228.42 576.496 228.648 571.124 227.626L575.283 227.316Z"/>
	<path fill="#F8DEBA" transform="scale(0.195312 0.195312)" d="M369.954 240.285C371.762 241.122 373.687 241.746 374.876 243.416C377.829 253.464 373.216 275.191 375.929 284.7C377.474 290.112 381.274 295.519 383.958 300.456C386.473 305.081 388.756 309.839 391.341 314.424C393.609 318.448 397.108 322.861 397.691 327.519C398.465 333.704 396.442 360.328 398.911 363.499C399.906 363.415 400.09 363.251 400.968 362.733C403.827 361.048 411.263 362.117 414.538 362.241L418.174 366.707C419.518 365.24 420.824 363.678 422.241 362.285C426.128 362.299 430.032 362.385 433.914 362.212C435.336 363.899 436.717 365.576 438.33 367.087L442.431 362.127C445.578 362.052 448.795 361.806 451.934 362.055C455.301 364.236 457.763 366.775 460.511 369.671L460.497 418.649C460.504 426.112 461.484 434.898 460.13 442.152C459.851 443.646 459.553 444.639 458.279 445.498C456.734 445.516 456.417 445.518 455.077 444.779C454.315 443.686 453.942 442.786 453.799 441.448C453.135 435.22 453.655 428.467 453.646 422.171L453.598 384.295C453.614 380.362 454.171 376.307 453.895 372.4C453.787 370.878 453.386 369.304 452.095 368.347C449.422 366.365 445.073 367.309 441.99 367.562C441.942 370.564 442.337 373.601 442.202 376.589C442.137 378.045 441.562 378.85 440.531 379.847C438.573 380.781 436.31 380.371 434.196 380.256C433.894 377.246 434.5 370.714 432.364 368.581C431.34 367.559 429.933 367.223 428.538 367.161C426.807 367.084 424.63 367.308 423.416 368.708C421.373 371.064 422.424 377.483 422.468 380.503L414.558 380.447C414.635 377.445 415.546 371.457 413.424 369.011C411.261 366.516 405.414 367.39 402.472 367.456C402.42 371.07 403.807 376.703 401.376 379.591C400.067 380.198 399.459 380.255 398.033 380.06C396.536 377.063 398.921 372.632 397.354 369.466C396.251 367.238 393.162 367.078 391.002 366.654C390.852 358.322 391.592 333.777 390.1 327.895C388.39 321.156 383.419 313.542 380.191 307.326C376.943 301.072 372.185 294.422 370.044 287.745C368.685 283.506 369.607 246.752 369.954 240.285Z"/>
	<path fill="#F8DEBA" transform="scale(0.195312 0.195312)" d="M627.082 314.374L632.242 313.05Q632.396 339.236 632.169 365.422L629.403 368.548Q629.678 374.515 630.241 380.461L621.237 380.482C621.379 378.168 621.499 375.87 621.819 373.573C622.036 372.011 622.055 370.043 621.196 368.648C620.534 367.575 619.489 367.123 618.299 366.913C616.281 366.557 610.79 367.606 609.201 369.025C608.514 369.639 608.369 370.784 608.429 371.65C608.606 374.215 609.857 377.094 609.31 379.608C608.276 380.684 607.529 380.686 606.053 380.74C604.052 380.814 601.993 380.66 599.99 380.585C600.025 376.34 600.208 372.086 600.212 367.845C595.907 367.66 591.627 367.652 587.32 367.687C587.848 372.002 588.056 376.2 588.028 380.546L579.754 380.595C579.789 376.854 581.018 371.132 578.583 368.231C575.488 366.821 571.773 367.704 568.495 368.05C568.495 372.048 568.751 376.238 568.106 380.187C567.497 380.738 567.898 380.515 566.794 380.598C564.973 378.069 565.858 370.655 565.9 367.391C565.654 366.038 565.257 364.748 564.863 363.434C569.359 361.693 574.516 360.691 579.239 362.156C581.566 362.877 583.59 363.941 586.016 364.416C586.161 364.298 586.305 364.177 586.451 364.06C586.68 363.878 586.913 363.702 587.142 363.52C593.575 358.374 602.599 364.54 605.458 364.192C606.208 364.1 607.425 362.657 608.257 362.424C612.336 361.281 622.043 362.243 626.661 362.353C628.267 346.554 625.269 330.136 627.082 314.374Z"/>
	<path fill="#FCF6DA" transform="scale(0.195312 0.195312)" d="M565.9 367.391C567.195 368.227 567.542 368.196 567.852 369.762C568.517 373.125 567.734 376.765 568.106 380.187C567.497 380.738 567.898 380.515 566.794 380.598C564.973 378.069 565.858 370.655 565.9 367.391Z"/>
	<path fill="#F8DEBA" transform="scale(0.195312 0.195312)" d="M765.062 325.138C770.067 324.401 774.89 324.368 779.8 322.892C785.661 321.13 791.047 317.876 796.843 315.909C801.256 319.022 804.837 322.78 808.446 326.773C827.188 321.341 844.666 326.626 862.837 331.675C868.382 333.216 874.037 334.364 879.568 335.917Q840.056 335.698 800.665 332.592C790.266 331.814 778.154 331.723 768.145 328.718L765.062 325.138Z"/>
	<path fill="#FCF6DA" transform="scale(0.195312 0.195312)" d="M512.215 122.082C524.003 133.074 535.961 151.756 546.437 164.804L568.346 191.621C571.453 195.472 575.17 199.413 577.692 203.645C577.432 211.145 577.465 220.132 575.283 227.316L571.124 227.626L570.503 227.681C570.264 220.218 570.946 213.104 571.781 205.704C566.228 200.159 561.366 193.886 556.411 187.815C545.268 174.163 534.694 160.075 523.67 146.326C519.121 140.652 514.757 133.949 509.344 129.107C508.919 126.794 511.02 124.043 512.215 122.082Z"/>
	<path fill="#F8DEBA" transform="scale(0.195312 0.195312)" d="M241.37 264.991C248.329 266.093 252.514 271.73 258.875 273.894C263.959 275.625 269.312 276.63 274.436 278.272C280.842 280.325 287.092 283.028 293.663 284.533C300.602 286.121 307.691 286.809 314.617 288.55C303.669 288.001 292.634 288.333 281.675 288.399L237.625 288.391C212.759 288.209 187.661 288.804 162.834 287.798C174.521 285.82 185.888 281.522 197.562 280.068C203.651 279.31 211.52 281.672 217.207 279.534C225.78 276.312 232.842 269.781 240.767 265.327L241.37 264.991Z"/>
	<path fill="#F8DEBA" transform="scale(0.195312 0.195312)" d="M756.807 259.858C762.165 263.399 766.487 268.571 772.246 271.568C779.002 275.084 790.197 275.319 797.905 276.941C805.166 278.468 812.229 280.624 819.581 281.735C811.5 282.16 803.362 281.703 795.273 281.592Q779.262 281.472 763.25 281.519L721.536 281.612C714.779 281.602 707.247 282.241 700.622 281.043C706.013 280.325 711.343 279.114 716.65 277.946C733.454 274.246 742.854 270.103 756.807 259.858Z"/>
	<path fill="#F8DEBA" transform="scale(0.195312 0.195312)" d="M208.381 329.909C215.899 330.341 217.341 335.764 223.878 337.62C227.859 338.75 232.287 339.049 236.377 339.741L261.973 344.175C243.141 345.336 224.252 344.963 205.396 344.858C188.01 344.469 169.919 345.957 152.668 343.516C159.292 342.682 166.043 341.768 172.574 340.389C185.859 337.584 188.798 334.915 203.137 337.291C204.747 334.7 206.26 332.124 208.381 329.909Z"/>
	<path fill="#F8DEBA" transform="scale(0.195312 0.195312)" d="M346.699 203.496C353.444 203.521 358.772 210.796 364.794 213.667C371.826 217.019 379.861 217.948 386.849 221.411C380.096 220.468 373.296 219.944 366.506 219.355C352.676 217.627 340.778 215.42 326.8 217.702C332.729 212.739 339.61 206.619 346.699 203.496Z"/>
	<path fill="#F8DEBA" transform="scale(0.195312 0.195312)" d="M422.103 166.09C424.856 165.826 427.206 165.504 429.535 167.254C430.713 168.141 431.488 169.352 431.495 170.858C431.507 173.452 429.717 175.194 427.936 176.794C426.896 177.064 425.799 177.369 424.723 177.437C423.167 177.537 421.449 176.706 420.388 175.588C419.238 174.377 418.797 172.813 418.959 171.169C419.19 168.813 420.401 167.599 422.103 166.09Z"/>
	<path fill="#F8DEBA" transform="scale(0.195312 0.195312)" d="M322.326 274.048C323.431 273.949 324.946 273.763 326.03 274.001C327.683 274.363 329.25 275.636 330.254 276.966C331.241 278.271 331.647 279.898 331.273 281.504C330.784 283.6 329.442 284.534 327.732 285.612Q327.063 285.675 326.392 285.715C324.191 285.838 322.425 285.493 320.787 283.915Q320.577 283.716 320.389 283.495Q320.202 283.274 320.039 283.034Q319.877 282.795 319.741 282.539Q319.605 282.283 319.498 282.014Q319.39 281.745 319.313 281.466Q319.235 281.186 319.188 280.901Q319.141 280.615 319.125 280.326Q319.109 280.036 319.124 279.747C319.252 277.167 320.492 275.717 322.326 274.048Z"/>
	<path fill="#F8DEBA" transform="scale(0.195312 0.195312)" d="M291.987 229.452C292.815 229.448 293.685 229.433 294.501 229.578C296.065 229.858 297.674 230.955 298.528 232.287C299.301 233.491 299.542 234.85 299.24 236.259C298.681 238.868 297.043 239.988 294.874 241.297C294.017 241.369 293.113 241.463 292.255 241.381C290.994 241.26 289.44 240.393 288.706 239.333C287.718 237.908 287.485 236.409 287.811 234.717C288.311 232.123 289.887 230.848 291.987 229.452Z"/>
	<path fill="#F8DEBA" transform="scale(0.195312 0.195312)" d="M175.363 373.044C176.407 373.138 177.553 373.194 178.545 373.552C179.914 374.046 181.178 375.236 181.685 376.609C182.154 377.877 181.98 379.235 181.375 380.419C180.308 382.507 178.609 382.965 176.519 383.624C175.018 383.605 173.376 383.634 171.992 382.981C170.628 382.338 169.415 381.18 169.06 379.666C168.813 378.615 169.041 377.537 169.567 376.61C170.84 374.364 173.019 373.696 175.363 373.044Z"/>
	<path fill="#F8DEBA" transform="scale(0.195312 0.195312)" d="M604.627 161.964C605.419 162.101 606.245 162.232 607.006 162.497C608.443 162.999 609.698 164.331 610.278 165.724C610.885 167.181 610.849 168.772 610.249 170.23C609.368 172.366 607.958 173.033 605.954 173.903C605.357 173.833 604.758 173.761 604.168 173.639C602.608 173.315 600.921 172.273 600.148 170.832C599.397 169.431 599.217 168.064 599.747 166.546C600.617 164.052 602.377 163.094 604.627 161.964Z"/>
	<path fill="#F8DEBA" transform="scale(0.195312 0.195312)" d="M844.8 294.466C847.043 294.445 849.205 294.384 850.826 296.196C851.684 297.156 852.202 298.186 852.026 299.508C851.75 301.571 850.328 302.661 848.777 303.802C846.793 304.017 845.15 304.161 843.529 302.735C842.522 301.851 841.987 300.613 841.996 299.277C842.01 296.977 843.208 295.88 844.8 294.466Z"/>
	<path fill="#F8DEBA" transform="scale(0.195312 0.195312)" d="M602.342 262.52C604.361 262.401 605.912 262.267 607.629 263.539C608.72 264.347 609.425 265.33 609.44 266.743C609.462 268.772 608.205 269.998 606.854 271.283C604.821 271.578 602.901 271.848 601.217 270.404C600.246 269.571 599.758 268.483 599.801 267.202C599.87 265.109 600.941 263.897 602.342 262.52Z"/>
	<path fill="#F8DEBA" transform="scale(0.195312 0.195312)" d="M726.489 248.93C728.245 248.956 730.186 249.229 731.412 250.639C732.243 251.594 732.503 252.713 732.309 253.95C732.055 255.576 730.784 256.541 729.605 257.53C727.737 257.518 725.98 257.24 724.663 255.782C723.82 254.848 723.567 253.673 723.81 252.452C724.142 250.778 725.224 249.94 726.489 248.93Z"/>
	<path fill="#F8DEBA" transform="scale(0.195312 0.195312)" d="M846.07 369.399C847.405 369.454 848.713 369.687 849.737 370.624C850.717 371.521 851.152 372.655 851.062 373.976C850.915 376.139 849.762 377.093 848.212 378.356C846.88 378.106 845.488 377.865 844.405 376.986C843.481 376.236 842.891 375.134 842.964 373.925C843.091 371.819 844.585 370.644 846.07 369.399Z"/>
	<path fill="#F8DEBA" transform="scale(0.195312 0.195312)" d="M419.194 247.529C420.715 247.455 422.366 247.302 423.743 248.056C425.175 248.842 425.854 249.649 426.283 251.213C425.693 252.396 425.295 252.775 424.157 253.443C421.861 253.493 419.26 253.788 417.332 252.295C416.701 251.806 416.813 251.414 416.679 250.68C417.173 249.242 418.105 248.514 419.194 247.529Z"/>
	<path fill="#F8DEBA" transform="scale(0.195312 0.195312)" d="M432.315 302.903C433.263 302.968 434.369 302.973 435.271 303.292C437.087 303.935 438.242 305.629 438.929 307.32C438.263 308.284 438.15 308.185 437.126 308.612C435.174 308.714 432.61 309.111 430.803 308.221C429.995 307.823 430.132 307.55 429.896 306.761C430.355 305.141 431.258 304.158 432.315 302.903Z"/>
	<path fill="#F8DEBA" transform="scale(0.195312 0.195312)" d="M162.582 312.127C163.062 312.273 163.989 312.48 164.423 312.792C165.398 313.493 165.953 314.263 166.034 315.481C166.143 317.108 165.023 318.484 164.15 319.743C164.005 319.694 163.856 319.655 163.714 319.597C162.139 318.959 161.698 318.226 161.06 316.757C161.1 314.845 161.66 313.78 162.582 312.127Z"/>
	<path fill="#A4B4A3" transform="scale(0.195312 0.195312)" d="M284.7 440.118C321.878 450.063 359.166 459.637 396.243 469.956L439.572 482.006C450.755 485.237 461.887 488.818 473.167 491.692C481.038 493.698 489.118 494.875 497.163 495.948C501.677 496.551 506.327 496.904 510.743 498.036C504.213 500.945 497.519 503.752 491.191 507.077C480.729 512.575 470.678 519.118 460.389 524.969L376.574 573.297L328.522 600.115C321.991 603.789 314.59 606.916 308.614 611.471C304.182 614.85 301.407 622.205 301.172 627.523C300.993 631.554 301.171 635.646 301.239 639.681C290.494 642.59 283.813 641.309 274.251 635.842L273.831 635.599C280.344 636.671 285.61 637.534 291.32 633.322C293.001 632.081 294.571 630.654 296.14 629.274C284.989 628.825 278.821 624.419 271.296 616.537C276.68 618.105 281.481 619.005 286.676 616.162Q288.067 615.394 289.424 614.567C280.598 610.622 272.954 605.61 267.501 597.404C271.346 598.837 278.097 600.768 282.154 599.158C282.69 598.945 282.912 598.704 283.314 598.353L283.553 597.279C280.813 593.634 273.463 592.077 267.842 583.624C271.253 584.125 274.563 584.077 278.002 584.011C268.574 577.307 265.71 565.146 263.481 554.387C261.218 561.823 259.157 570.776 254.943 577.356C253.793 579.152 248.277 581.569 248.196 582.931C251.505 585.006 254.578 583.152 257.35 584.398C254.365 588.736 250.048 594.686 244.61 595.715L243.71 595.877C242.969 596.018 242.584 596.152 241.972 596.581L241.696 597.684C242.48 598.823 242.962 599.204 244.354 599.49C248.862 600.417 254.111 600.138 258.294 598.27C251.645 606.662 246.462 610.92 236.439 615.069L235.886 615.976C236.376 617.226 236.435 617.438 237.795 617.95C242.458 619.705 250.767 618.314 255.271 616.783C251.424 621.611 247.412 625.277 242.265 628.696C236.323 622.874 229.37 619.196 223.819 612.764C228.581 613.464 234.32 614.297 238.522 611.264C239.117 610.834 239.146 610.754 239.556 610.273C237.781 606.896 231.728 604.263 228.796 601.489C226.09 598.93 224.282 596.124 222.377 592.964C227.682 593.081 232.142 592.432 237.2 590.816C229.648 586.423 223.829 582.065 218.846 574.761C224.362 575.661 227.653 575.484 232.865 573.275C232.708 573.156 232.553 573.035 232.394 572.917C229.264 570.602 225.484 569.455 222.572 566.905L222.634 566.282L225.767 565.5L226.203 564.734C219.252 554.526 216.952 550.169 213.478 538.006C211.986 543.97 209.912 554.644 206.376 559.347C204.923 561.279 202.949 562.963 201.3 564.746C202.66 565.942 204.923 566.039 206.663 566.348C203.241 568.633 198.038 570.611 195.334 573.507L195.407 574.324C198.311 575.965 203.358 575.846 206.502 574.9C207.425 574.622 208.326 574.271 209.221 573.916C207.947 576.029 206.698 578.158 204.942 579.916C201.91 582.951 192.917 587.641 192.229 591.25C194.111 593.024 198.461 592.878 200.998 592.797C202.855 592.737 204.722 592.524 206.569 592.319C202.475 598.46 198.92 602.812 192.692 606.856C190.294 608.413 187.497 609.776 185.472 611.803L185.354 611.443L185.134 611.97C183.66 608.764 176.44 606.256 173.437 604.001C171.54 602.577 170.055 600.485 168.604 598.626C173.851 599.617 177.493 598.818 182.373 596.914C179.099 595.374 173.915 593.45 171.304 591.027C172.082 590.706 172.7 590.531 173.237 589.842C173.69 589.261 173.472 588.358 173.242 587.704C172.443 585.434 171.027 583.163 169.975 580.986C167.493 575.853 165.755 571.258 164.574 565.674C163.756 568.962 162.935 572.345 161.694 575.501C160.07 579.628 154.842 586.627 154.897 590.72L156.566 590.817C154.386 594.113 149.552 595.888 146.097 597.639C150.368 599.27 154.66 599.479 159.144 599.021C154.792 604.054 149.862 607.709 143.471 609.76C142.312 610.132 141.614 610.411 140.673 611.183L139.883 611.891C137.904 600.301 138.624 587.263 138.562 575.489L138.43 515.343C176.696 495.125 215.534 476.054 253.823 455.9C264.049 450.518 274.658 445.845 284.7 440.118Z"/>
	<path fill="#A4B4A3" transform="scale(0.195312 0.195312)" d="M512.797 497.452C550.248 485.882 588.431 476.472 626.057 465.469L725.565 436.1C743.059 430.793 760.485 424.897 778.056 419.908C788.761 424.923 799.03 431.116 809.501 436.62L885.525 476.712L885.533 518.17C885.529 526.388 885.927 534.907 885.033 543.078L884.864 544.097C881.574 543.849 871.211 534.142 868.858 531.498C873.274 531.88 878.775 532.833 882.874 530.758C883.235 530.153 883.638 529.874 883.431 529.136C882.756 526.731 879.566 525.376 877.547 524.241C875.077 523.149 872.961 521.514 870.77 519.957C869.272 512.535 867.263 504.75 862.787 498.491C858.445 505.444 856.436 512.516 854.39 520.374C854.281 520.477 854.175 520.583 854.064 520.683C850.818 523.638 842.688 526.004 841.903 530.687C842.538 531.824 842.973 532.166 844.224 532.591C847.866 533.83 852.339 532.16 855.814 530.971L855.437 531.547C851.531 537.368 839.782 543.572 838.217 548.473C838.6 549.755 838.897 550.206 840.153 550.789C843.666 552.422 848.87 551.979 852.656 552C847.379 559.114 839.561 562.436 833.576 568.681L833.014 569.259C832.902 569.375 832.794 569.495 832.684 569.613C830.421 560.847 818.196 555.959 812.653 545.962C817.46 546.378 824.372 547.521 828.636 544.65C829.281 543.429 829.436 543.221 828.967 541.819C827.9 538.633 813.454 528.791 809.347 522.081C813.212 522.197 816.789 522.844 820.131 520.584C820.77 519.415 821.044 518.886 820.612 517.56C819.579 514.389 810.227 505.362 807.586 501.917C810.646 502.37 815.88 503.75 818.443 501.668C819.187 501.063 819.237 500.349 819.533 499.476C819.071 494.671 811.514 490.711 808.633 487.118C805.961 483.785 802.195 469.508 798.928 463.629C792.725 471.92 793.022 482.143 789.045 487.455C786.559 490.776 778.369 494.955 777.964 499.11C777.913 499.631 778.087 500.149 778.148 500.668C779.406 501.977 780.41 502.299 782.222 502.323C785.088 502.36 788.116 501.652 790.94 501.19C789.33 503.27 787.73 505.4 785.965 507.35C782.988 510.638 777.113 514.621 776.174 519.006C776.507 520.273 776.702 520.831 777.892 521.505C780.637 523.061 784.984 522.508 788.061 522.457C786.011 525.042 783.955 527.758 781.637 530.108C777.942 533.854 770.902 537.561 769.142 542.518C769.306 543.908 769.314 544.239 770.474 545.185C773.636 547.766 781.424 546.53 785.34 546.36C779.845 555.535 771.431 559.556 765.57 567.741C765.224 566.555 764.998 565.908 764.123 565.021C761.48 562.79 757.123 561.674 753.966 560.102C748.671 557.465 744.609 553.709 740.35 549.665C742.743 550.41 745.235 551.275 747.761 551.32C751.005 551.377 755.45 550.761 757.797 548.253C759.259 546.691 759.31 545.072 759.27 543.061C755.526 540.067 749.973 539.152 745.902 536.302C743.958 534.94 740.743 532.635 740.305 530.21C742.778 528.84 747.31 531.29 750.617 529.815C751.636 528.715 752.007 528.192 752.357 526.676C751.697 522.055 742.698 519.325 738.836 515.494L738.352 515.006L746.649 514.947C740.947 507.727 736.161 500.581 731.992 492.364C730.502 495.501 728.93 498.557 727.044 501.479C724.725 505.072 720.493 509.661 719.1 513.557C718.967 513.93 719.062 514.348 719.043 514.743L719.776 515.106C722.253 514.928 724.48 513.97 726.791 513.121C722.46 519.253 718.382 519.541 712.909 523.727C711.608 524.722 711.227 525.551 711.083 527.142C714.195 533.057 721.193 528.149 725.497 530.22C725.457 530.367 725.433 530.52 725.377 530.661C723.007 536.658 710.87 540.298 705.444 542.291C705.325 543.915 705.165 545.623 705.905 547.137C706.897 549.168 708.514 550.284 710.621 550.967C715.904 552.677 720.164 551.293 724.864 548.942C721.08 554.589 715.425 559.742 708.718 561.471C705.709 562.246 702.696 562.632 700.079 564.423C699.457 566.061 699.132 567.757 699.777 569.463C700.353 570.986 701.605 571.942 703.053 572.559C709.939 575.498 717.094 573.16 723.538 570.4C714.47 579.58 704.405 579.583 698.453 585.044C697.147 586.242 696.477 588.071 696.601 589.85C696.718 591.54 697.447 592.841 698.754 593.883C703.785 597.893 712.028 596.47 717.915 595.839C713.653 598.736 709.437 601.587 704.924 604.085C668.761 586.026 633.762 565.427 598.47 545.741L547.104 517.023C535.629 510.614 523.956 504.398 512.797 497.452Z"/>
	<path fill="#A4B4A3" transform="scale(0.195312 0.195312)" d="M884.5 528.257C884.508 524.11 884.357 519.891 884.737 515.762C885.064 524.449 884.048 534.667 885.033 543.078L884.864 544.097C881.574 543.849 871.211 534.142 868.858 531.498C873.274 531.88 878.775 532.833 882.874 530.758C883.235 530.153 883.638 529.874 883.431 529.136C882.756 526.731 879.566 525.376 877.547 524.241C880.381 524.397 882.274 525.796 884.141 527.834C884.266 527.97 884.38 528.116 884.5 528.257Z"/>
	<path fill="#E87157" transform="scale(0.195312 0.195312)" d="M138.997 730.429C177.995 731.942 217.314 730.978 256.344 730.984L285.682 730.991C292.587 730.994 299.655 730.727 306.516 731.577L306.548 739.339Q259.493 740.544 212.496 743.181C199.965 743.807 183.393 743.183 171.371 746.145C186.717 748.999 209.068 748.164 225.134 748.484C252.258 749.024 279.365 750.064 306.5 749.813C306.209 753.247 306.324 756.725 306.344 760.171C295.552 760.386 215.897 763.468 212.374 765.266C216.582 767.348 231.241 767.989 236.395 768.078C259.624 769.99 283.219 768.827 306.51 769.851L306.344 780.169C296.165 781.068 247.597 783.383 242.072 786.354L242.538 786.919C249.061 788.7 256.238 788.309 262.952 788.653C277.449 789.394 291.753 790.03 306.277 790.116L306.363 802.233C295.291 804.628 283.277 805.342 271.985 806.592C283.329 809.089 294.481 809.721 306.037 810.053L306.009 828.23L190.431 764.096C183.064 759.919 175.775 755.558 168.331 751.525C161.795 747.985 154.755 744.818 148.66 740.56C144.824 737.88 141.608 734.285 138.997 730.429Z"/>
	<path fill="#E87157" transform="scale(0.195312 0.195312)" d="M717.661 730.593L824.422 730.512C844.71 730.505 865.042 730.099 885.324 730.537C883.759 733.491 882.323 735.611 879.561 737.59C874.539 741.188 868.849 744.08 863.468 747.105C852.871 753.06 842.152 758.728 831.475 764.529L777.693 794.411C764.927 801.368 752.329 808.554 739.669 815.692C732.261 819.869 724.674 823.743 717.473 828.276L717.474 809.997C727.705 809.638 737.919 808.677 747.877 806.209C737.825 804.23 727.561 803.992 717.445 802.536L717.312 791.931C735.021 791.746 752.782 789.44 770.46 788.419C774.618 788.024 778.667 787.492 782.768 786.697C774.544 784.955 765.833 784.503 757.459 783.868Q737.429 782.289 717.352 781.517C717.169 778.024 717.303 774.481 717.324 770.982C738.651 770.47 759.911 769.835 781.224 768.922C790.492 768.525 800.478 768.833 809.611 767.297C811.526 766.975 813.248 766.374 815.046 765.665C802.99 765.435 790.822 764.212 778.776 763.448L717.532 759.874L717.486 750.426C741.539 750.356 765.644 749.462 789.689 748.783C806.5 748.308 831.795 749.088 847.379 744.861C837.85 743.882 828.189 743.737 818.624 743.099Q768.249 739.98 717.788 738.944C717.573 736.173 717.658 733.372 717.661 730.593Z"/>
	<path fill="#A4B4A3" transform="scale(0.195312 0.195312)" d="M294.235 333.338C298.171 337.34 301.456 343.065 304.656 347.676C309.082 354.053 313.68 360.301 318.164 366.636C311.784 378.248 305.778 390.055 299.481 401.709C295.131 409.76 290.291 417.55 286.497 425.887C285.259 421.954 283.996 418.064 282.495 414.222C279.427 419.285 278.165 424.352 276.694 430.009C261.149 437.018 246.121 445.714 230.816 453.32Q218.682 459.314 206.691 465.587C214.51 452.454 223.462 439.88 231.942 427.163L260.299 383.958L282.974 349.696C286.664 344.203 290.136 338.541 294.235 333.338Z"/>
	<path fill="#A4B4A3" transform="scale(0.195312 0.195312)" d="M752.127 329.372C759.443 335.553 768.721 348.919 774.941 356.848C782.455 366.427 790.4 375.689 797.809 385.34C809.31 400.321 820.233 416.539 829.325 433.119C820.68 429.238 812.374 424.456 804.041 419.951C795.874 415.604 787.732 410.859 779.26 407.146C762.385 411.428 745.665 416.71 729.095 422.044C733.966 408.257 744.932 388.656 747.757 375.655C751.039 360.553 749.308 344.618 752.127 329.372Z"/>
	<path fill="#A4B4A3" transform="scale(0.195312 0.195312)" d="M248.839 389.207L249.507 389.228L249.608 389.97C245.028 397.924 239.198 405.405 234.128 413.089C228.58 421.499 199.191 468.15 194.629 471.669C189.703 475.469 181.661 478.551 175.955 481.497C163.8 487.775 151.803 494.338 139.607 500.54L138.994 500.711C137.632 498.768 138.41 484.933 138.434 481.528C153.212 469.102 167.352 455.737 181.435 442.525Q208.24 417.765 233.876 391.796C238.731 390.5 243.864 389.868 248.839 389.207Z"/>
	<path fill="#A4B4A3" transform="scale(0.195312 0.195312)" d="M744.322 332.945C745.074 336.833 743.316 343.153 743.021 347.242C742.455 355.067 742.936 363.093 741.582 370.838C739.95 380.175 735.899 388.262 732.353 396.943L721.461 424.127C713.376 426.716 705.213 429.062 697.129 431.666C696.268 425.982 696.96 419.211 696.981 413.396C697.025 400.828 696.894 388.226 697.296 375.665C713.569 362.184 727.745 346.001 744.322 332.945Z"/>
	<path fill="#A4B4A3" transform="scale(0.195312 0.195312)" d="M322.519 373.298C328.932 382.152 335.191 391.128 341.481 400.07L341.424 442.003C333.759 439.29 325.572 437.573 317.687 435.584Q304.713 432.111 291.66 428.946C296.586 421.671 300.43 413.395 304.517 405.629C310.246 394.745 316.209 383.856 322.519 373.298Z"/>
	<path fill="#A4B4A3" transform="scale(0.195312 0.195312)" d="M823.046 407.735C829.078 410.109 840.769 419.043 847.03 423.148C859.823 431.538 873.173 439.433 885.591 448.348C885.721 453.102 885.62 457.878 885.61 462.635C878.206 459.901 871.038 455.151 864.067 451.385C855.971 447.009 847.268 443.017 839.669 437.833C834.939 428.245 828.65 416.851 823.046 407.735Z"/>
	<path fill="#F8DEBA" transform="scale(0.195312 0.195312)" d="M547.477 333.035L554.032 332.968C554.221 345.007 554.922 466.362 553.389 469.031C551.484 469.304 549.529 469.796 547.652 469.21C546.442 463.75 547.274 441.3 547.257 433.9Q547.102 383.465 547.477 333.035Z"/>
	<path fill="#F8DEBA" transform="scale(0.195312 0.195312)" d="M682.153 335.962C683.93 335.979 685.632 335.769 687.156 336.826C687.968 338.389 687.94 340.209 687.982 341.938C688.462 362.143 687.885 382.455 687.906 402.674C687.914 409.81 688.867 426.947 687.81 432.945C687.575 434.274 687.162 434.337 686.116 435.099C684.662 435.596 683.219 436.314 681.669 435.961L681.754 434.173L681.333 434.516C680.06 418.055 680.951 400.944 680.98 384.42C681.005 369.717 680.168 354.496 681.106 339.855C681.202 338.353 681.507 337.313 682.153 335.962Z"/>
	<path fill="#A4B4A3" transform="scale(0.195312 0.195312)" d="M516.778 150.327C521.979 154.465 553.343 195.104 557.52 202.799C548.766 200.258 540.38 197.969 531.319 196.829C528.811 189.411 526.745 181.816 524.359 174.353C521.809 166.378 518.885 158.429 516.778 150.327Z"/>
	<path fill="#F8DEBA" transform="scale(0.195312 0.195312)" d="M547.134 242.407C549.121 242.317 551.386 242.203 552.852 243.815C553.512 244.541 553.778 245.27 553.902 246.227C554.901 253.989 554.012 266.406 553.98 274.6L553.885 299.372C553.864 304.673 554.102 310.128 553.426 315.388C551.519 315.42 549.742 315.353 547.975 314.606C546.234 312.393 547.114 251.291 547.134 242.407Z"/>
	<path fill="#FCF6DA" transform="scale(0.195312 0.195312)" d="M381.1 355.7C381.973 356.071 382.815 356.422 383.552 357.04C385.129 358.361 385.35 360.099 385.395 362.027C385.674 373.899 385.342 385.853 385.423 397.739C385.468 404.294 386.354 412.557 385.423 418.901C385.175 420.591 384.224 421.486 383.091 422.655C381.513 422.431 380.641 422.235 379.289 421.398C378.656 420.551 378.49 419.931 378.412 418.905C377.818 411.052 378.374 402.756 378.368 394.856C378.361 383.145 377.939 371.258 378.451 359.57C378.534 357.666 379.774 356.895 381.1 355.7Z"/>
	<path fill="#FCF6DA" transform="scale(0.195312 0.195312)" d="M460.502 235.984C460.926 234.352 460.978 233.477 462.504 232.495C467.516 229.273 497.968 222.206 503.642 223.672C504.541 223.905 504.452 224.091 504.933 224.813C505.038 226.175 505.377 228.606 504.466 229.727C503.168 231.326 500.671 231.41 498.771 231.502C493.322 231.766 487.868 231.949 482.51 233.176C475.463 234.789 468.116 237.784 460.874 238.102L460.502 235.984Z"/>
	<path fill="#A4B4A3" transform="scale(0.195312 0.195312)" d="M185.134 611.97L185.354 611.443L185.472 611.803C186.317 612.455 187.205 613.15 188.222 613.506C193.716 615.426 199.86 614.117 204.925 611.711C200.65 618.005 195.647 622.057 189.089 625.789C180.903 620.732 176.585 620.148 169.978 612.091C175.599 613.45 179.712 614.888 185.134 611.97Z"/>
	<path fill="#A4B4A3" transform="scale(0.195312 0.195312)" d="M764.123 565.021C764.998 565.908 765.224 566.555 765.57 567.741C765.383 569.566 765.147 571.316 766.543 572.777C769.549 575.924 778.168 574.406 782.206 574.182L781.765 574.709C778.327 578.746 773.319 583.416 767.77 583.649C760.248 583.965 751.483 576.973 746.185 572.229C749.414 573.773 752.215 574.782 755.845 574.442C758.56 574.188 761.06 573.42 762.806 571.208C764.44 569.139 764.466 567.526 764.123 565.021Z"/>
	<path fill="#F8DEBA" transform="scale(0.195312 0.195312)" d="M658.301 413.342L658.8 413.368C660.481 413.47 661.596 413.504 662.714 414.933C665.436 418.411 664.417 432.436 663.595 436.779L662.625 437.202L656.013 437.094C656.087 432.21 655.813 427.328 655.841 422.444C655.86 418.913 655.655 415.987 658.301 413.342Z"/>
	<path fill="#FCF6DA" transform="scale(0.195312 0.195312)" d="M500.384 394.239C501.894 394.428 503.078 394.516 504.143 395.75C506.895 398.94 506.192 406.002 506.127 410.039C506.09 412.318 506.584 417.739 505.046 419.229C503.148 419.271 501.381 419.22 499.502 418.938C498.594 418.104 498.745 418.325 498.575 417.242C497.943 413.204 497.801 400.636 498.915 396.809C499.188 395.873 499.818 395.02 500.384 394.239Z"/>
	<path fill="#F8DEBA" transform="scale(0.195312 0.195312)" d="M493.522 327.411C494.559 327.434 496.039 327.379 496.87 328.018C498.692 329.418 499.012 331.975 499.277 334.113C499.664 337.233 500.201 348.307 498.464 350.541L491.613 350.676C491.717 344.163 489.796 332.75 493.522 327.411Z"/>
	<path fill="#A4B4A3" transform="scale(0.195312 0.195312)" d="M833.035 571.933C833.505 572.442 833.958 572.961 834.541 573.347C838.683 576.09 843.751 575.223 848.285 574.313C844.159 577.832 839.01 582.048 833.832 583.782Q831.477 582.96 829.2 581.943Q826.923 580.926 824.739 579.721Q822.555 578.516 820.481 577.132Q818.406 575.747 816.456 574.193C819.612 574.331 822.829 574.567 825.986 574.476C828.833 574.394 831.057 574.057 833.035 571.933Z"/>
	<path fill="#F8DEBA" transform="scale(0.195312 0.195312)" d="M421.463 402.394C421.973 402.407 422.485 402.407 422.992 402.462C424.223 402.596 424.948 403.097 425.682 404.081C428.099 407.32 427.55 418.317 426.656 422.291L425.628 422.731L418.941 422.379C418.965 417.711 418.491 412.957 418.818 408.302C419.02 405.439 419.266 404.311 421.463 402.394Z"/>
	<path fill="#F8DEBA" transform="scale(0.195312 0.195312)" d="M595.022 403.956C595.716 403.949 596.644 403.861 597.311 404.035C598.492 404.343 599.251 405.041 599.795 406.114C601.562 409.598 601.212 419.956 600.14 423.756L599.125 424.121C597.223 424.186 595.45 424.173 593.564 423.903C592.398 422.378 592.594 419.52 592.576 417.627C592.534 413.318 591.84 407.213 595.022 403.956Z"/>
	<path fill="#FCF6DA" transform="scale(0.195312 0.195312)" d="M503.21 243.357C504.608 243.371 505.949 243.308 507.042 244.347C508.926 246.137 509.228 250.178 509.288 252.603C509.35 255.111 509.642 261.339 507.998 263.117C506.055 263.146 503.847 263.415 502.017 262.691C501.706 261.841 501.533 261.134 501.467 260.222C501.265 257.409 500.892 247.085 501.924 244.9C502.21 244.295 502.781 243.871 503.21 243.357Z"/>
	<path fill="#F8DEBA" transform="scale(0.195312 0.195312)" d="M478.321 287.39C478.661 287.42 479 287.446 479.34 287.481C480.617 287.611 481.762 287.949 482.554 289.019C485.025 292.358 484.076 303.01 483.335 307.176L482.567 307.617C480.629 307.67 478.784 307.808 476.901 307.246C476.74 306.734 476.654 306.52 476.557 306.022C475.719 301.728 475.839 290.883 478.321 287.39Z"/>
	<path fill="#A4B4A3" transform="scale(0.195312 0.195312)" d="M830.761 619.777C835.6 619.503 840.483 619.518 845.331 619.413C841.632 622.391 837.99 625.459 833.958 627.983L832.265 628.319C828.229 627.261 824.197 622.716 821.107 619.921Q825.935 619.89 830.761 619.777Z"/>
	<path fill="#A4B4A3" transform="scale(0.195312 0.195312)" d="M771.82 619.719C772.731 619.541 773.223 619.498 774.115 619.771L773.925 620.688C770.926 623.871 766.954 626.248 763.289 628.59L758.404 626.4C755.81 624.487 753.861 622.539 751.959 619.955C758.567 620.116 765.225 620.203 771.82 619.719Z"/>
	<path fill="#A4B4A3" transform="scale(0.195312 0.195312)" d="M748.139 595.582C752.873 596.116 757.651 595.992 762.397 596.464C766.089 596.831 769.671 597.749 773.385 598.121L769.102 601.103C766.694 602.592 764.442 603.954 761.775 604.944C757.116 602.083 752.766 598.551 748.139 595.582Z"/>
	<path fill="#A4B4A3" transform="scale(0.195312 0.195312)" d="M173.253 629.383C176.685 630.224 180.096 630.727 183.598 631.18L178.72 634.556L179.3 634.71C184.135 636.026 189.79 637.069 194.644 635.286C196.152 634.732 197.59 633.7 199.2 633.574L198.93 634.774C196.133 638.192 193.206 640.933 189.542 643.404C183.021 640.087 177.751 635.083 173.253 629.383Z"/>
	<path fill="#FCF6DA" transform="scale(0.195312 0.195312)" d="M369.64 336.133C373.297 335.995 377.256 335.433 380.882 335.84C382.867 336.062 383.869 336.611 385.103 338.169C385.527 339.968 385.102 340.995 384.47 342.696C381.705 343.461 377.985 343.664 375.096 343.683C373.09 343.696 371.287 343.053 369.884 341.607C369.101 339.901 369.485 337.954 369.64 336.133Z"/>
	<path fill="#F8DEBA" transform="scale(0.195312 0.195312)" d="M666.997 278.315C669.4 279.401 684.879 299.246 688.361 303.137C684.96 302.146 681.784 301.244 678.239 300.91C674.409 293.564 669.869 286.083 666.997 278.315Z"/>
	<path fill="#A4B4A3" transform="scale(0.195312 0.195312)" d="M140.673 611.183C141.517 611.892 142.386 612.657 143.356 613.188C147.624 615.527 153.326 613.238 157.51 611.792C152.52 617.073 147.005 621.55 140.562 624.936C140.522 620.557 140.272 616.252 139.883 611.891L140.673 611.183Z"/>
	<path fill="#A4B4A3" transform="scale(0.195312 0.195312)" d="M301.896 649.641C301.99 649.692 302.101 649.721 302.179 649.794C302.794 650.37 302.917 651.173 303.045 651.956C302.082 654.505 300.582 655.124 298.142 656.194C293.24 658.344 288.944 657.165 284.238 655.268C282.986 654.543 281.994 653.707 280.921 652.752L280.984 652.161C288.939 652.109 294.15 651.265 301.896 649.641Z"/>
	<path fill="#A4B4A3" transform="scale(0.195312 0.195312)" d="M845.602 595.739L846.592 595.741C843.498 599.031 838.128 601.878 834.186 604.075L829.396 601.098C827.245 599.674 825.173 598.043 823.084 596.525C830.618 596.6 838.106 596.603 845.602 595.739Z"/>
	<path fill="#F8DEBA" transform="scale(0.195312 0.195312)" d="M374.994 319.721C377.147 319.647 379.569 319.382 381.7 319.657C383.211 319.851 383.938 320.569 384.802 321.737C384.978 323 384.864 323.806 384.155 324.91C383.243 326.33 382.086 326.582 380.565 326.931C378.783 326.989 376.514 327.182 374.774 326.796C372.876 326.374 371.069 324.898 370.105 323.26C370.014 322.221 369.823 321.804 370.649 321.014C371.898 319.819 373.366 319.815 374.994 319.721Z"/>
	<path fill="#FCF6DA" transform="scale(0.195312 0.195312)" d="M681.437 310.979L687.817 311.207C687.888 315.594 687.79 319.989 687.748 324.376C687.027 324.515 687.165 324.528 686.526 324.53C685.235 324.534 683.473 324.418 682.568 323.368C680.337 320.781 681.362 314.226 681.437 310.979Z"/>
	<path fill="#FCF6DA" transform="scale(0.195312 0.195312)" d="M662.082 309.933C663.34 309.906 664.574 309.99 665.827 310.078C667.332 311.104 667.84 311.982 668.304 313.747C668.787 315.586 668.501 321.081 667.434 322.616L661.659 322.808C661.681 318.5 661.787 314.232 662.082 309.933Z"/>
	<path fill="#A4B4A3" transform="scale(0.195312 0.195312)" d="M885.074 549.409C886.104 552.211 885.291 558.282 885.244 561.451C882.698 560.293 880.307 559.018 877.893 557.61C875.964 555.985 874.557 554.364 873.175 552.253C877.311 552.057 881.693 552.071 885.074 549.409Z"/>
	<path fill="#FCF6DA" transform="scale(0.195312 0.195312)" d="M527.476 207.982L534.889 208.175L534.846 217.625L527.713 217.745C527.557 214.498 527.546 211.233 527.476 207.982Z"/>
	<path fill="#FCF6DA" transform="scale(0.195312 0.195312)" d="M494.058 206.178L500.929 205.819L500.921 215.995L494.022 216.061C493.974 212.769 494.038 209.47 494.058 206.178Z"/>
	<path fill="#FCF6DA" transform="scale(0.195312 0.195312)" d="M555.05 212.614L561.425 213.309L561.44 224.126C559.284 223.753 557.205 223.173 555.097 222.599C554.998 219.276 555.055 215.938 555.05 212.614Z"/>
	<path fill="#FCF6DA" transform="scale(0.195312 0.195312)" d="M464.908 210.67C466.451 210.615 467.283 210.384 468.647 211.151C469.977 213.863 470.222 215.811 469.278 218.794C468.825 220.223 468.246 220.165 466.937 220.704L464.766 221.292C464.027 221.11 463.8 221.26 463.413 220.524C462.021 217.873 462.529 214.052 463.469 211.309L464.908 210.67Z"/>
	<path fill="#A4B4A3" transform="scale(0.195312 0.195312)" d="M251.632 635.954L252.111 636.12C251.357 638.888 243.904 644.276 241.543 646.378L237.753 643.75L232.761 640.002C240.623 641.006 244.66 639.556 251.632 635.954Z"/>
	<path fill="#FCF6DA" transform="scale(0.195312 0.195312)" d="M642.509 311.534C643.794 311.464 646.008 311.098 646.958 312.111C647.971 313.191 648.113 314.511 648.004 315.914C647.824 318.217 647.757 320.516 647.677 322.824Q646.762 322.87 645.847 322.895C644.276 322.924 643.891 322.858 642.802 321.802C641.622 318.737 642.391 314.806 642.509 311.534Z"/>
	<path fill="#A4B4A3" transform="scale(0.195312 0.195312)" d="M282.655 670.015C285.962 669.949 296.12 669.46 298.755 670.761L296.658 673.162C295.58 674.107 294.35 674.939 293.201 675.8C289.515 674.117 286.053 672.219 282.655 670.015Z"/>
	<path fill="#A4B4A3" transform="scale(0.195312 0.195312)" d="M152.378 629.966C151.225 631.064 149.951 632.046 148.718 633.054C145.918 634.922 143.218 636.899 140.522 638.914C140.544 635.851 140.33 632.795 140.16 629.739C144.575 631.215 147.887 630.678 152.378 629.966Z"/>
	<path fill="#A4B4A3" transform="scale(0.195312 0.195312)" d="M247.812 657.992L248.198 658.035L248.178 658.636C245.166 661.221 241.877 663.421 238.615 665.673C237.083 664.78 235.72 663.552 234.343 662.434C233.625 661.686 233.157 661.098 232.714 660.158C238.586 660.952 242.387 660.495 247.812 657.992Z"/>
	<path fill="#A4B4A3" transform="scale(0.195312 0.195312)" d="M882.841 594.242C883.363 594.102 883.899 594.205 884.434 594.24C885.043 595.164 885.074 596.009 885.215 597.083C884.751 598.222 885 598.286 883.801 598.813L882.222 598.071L876.776 594.758L882.841 594.242Z"/>
	<path fill="#FCF6DA" transform="scale(0.195312 0.195312)" d="M877.959 575.262C879.986 575.098 882.674 574.531 884.565 575.336C885.475 576.763 885.225 577.53 885.18 579.194C882.674 578.255 880.049 577.361 877.838 575.837L877.959 575.262Z"/>
	<defs>
		<linearGradient id="gradient_0" gradientUnits="userSpaceOnUse" x1="673.74573" y1="2.1186969" x2="673.7514" y2="-0.69471073">
			<stop offset="0" stop-color="#010000" stop-opacity="0"/>
			<stop offset="1" stop-color="#020002" stop-opacity="0.031372551"/>
		</linearGradient>
	</defs>
	<path fill="url(#gradient_0)" transform="scale(0.195312 0.195312)" d="M330.757 0L1017.52 0C1017.36 0.0270944 1017.2 0.0566119 1017.05 0.0812832L1016.26 0.197277C1011.14 0.992045 1005.85 0.52846 1000.69 0.523371L973.369 0.528333L876.435 0.539708L517.508 0.550619L443.378 0.758658C430.913 0.847876 338.27 2.62826 333.52 0.735776C332.827 0.459952 332.35 0.305469 331.629 0.165542L330.757 0Z"/>
</svg>
